<svg xmlns="http://www.w3.org/2000/svg" viewBox="0 0 852 852"><path fill="#f6e3b9" d="M0 0h852v852H0z"/><g fill-opacity=".8"><path fill="#7d5d4b" d="M867-4L-16 0l541 867z"/><path fill="#7a4a40" d="M615-16H293l59 827z"/><path fill="#d19f80" d="M867 127l-501 31-82 709z"/><path fill="#192519" d="M-16 202L4-16 802 6z"/><path fill="#2c2829" d="M158 168L650-16l217 116z"/><path fill="#dfc29d" d="M-16 181l690 321 173-372z"/><path fill="#dcb59e" d="M-16 349l707 86 110-260z"/><path fill="#7d3d38" d="M293 303l342 405L435-16z"/><path fill="#ffedbe" d="M304 166l-320 12 351 379z"/><path fill="#f5e4bb" d="M289 179L-16 336l359 221z"/><path fill="#f0dcb0" d="M315 164l-331 21 315 682z"/><path fill="#efdcb4" d="M324 204L-16 330l204 537z"/><path fill="#f0ddb2" d="M325 171l-341 80 246 616z"/><path fill="#1c251d" d="M856-1L416-16l451 143z"/><path fill="#feefbf" d="M615 526L482 182l385-64z"/><path fill="#f9e4b8" d="M673 506L496 153l360-30z"/><path fill="#fbebc6" d="M840 589L605 294l262-81z"/><path fill="#f9e9c3" d="M823 545L575 294l292-82z"/><path fill="#9a6e57" d="M299 528l364 135 33-174z"/><path fill="#41261f" d="M432 14l16 353 93-19z"/><path fill="#2c1919" d="M489 93l-59 125 39 186z"/><path fill="#ca676e" d="M388 67l-68 359 136-22z"/><path fill="#ba7058" d="M362 73l-27 518 103-312z"/><path fill="#e08675" d="M345 273l-33 125 139-134z"/><path fill="#aa694c" d="M276 738l153-326 186 298z"/><path fill="#f5dfb0" d="M90 740l340 127 363-64z"/><path fill="#eed8aa" d="M-16 847l394-101 388 121z"/><path fill="#dcc495" d="M145 592l-40 275 172-56z"/><path fill="#e2cc9e" d="M167 645l-66 155 167-30z"/><path fill="#dec494" d="M215 491l24 251 70-2z"/><path fill="#281612" d="M316 311l57-66-31-130z"/><path fill="#38211c" d="M311 306l51-90-15-85z"/><path fill="#311b18" d="M320 316l42-102-18-108z"/><path fill="#9c5a42" d="M343 286l32-112 83-15z"/><path fill="#683021" d="M402 256v-86l45 73z"/><path fill="#c612b5" d="M458 409l-6-64-145 22z"/><path fill="#a06445" d="M446 544l86-85-220-85z"/><path fill="#c18161" d="M602 544l-66 119-226-8z"/><path fill="#92664f" d="M623 652l-76 128-208-86z"/><path fill="#b47255" d="M549 676l-82 125-152-205z"/><path fill="#e6cd9b" d="M716 485L554 775l151-17z"/><path fill="#edd6a6" d="M739 554L546 781l114 20z"/><path fill="#eed8aa" d="M867 557L477 826l133 35z"/><path fill="#f1daae" d="M867 631L419 836l201 31z"/><path fill="#f5e0b2" d="M744 752l-398 51 132 64z"/><path fill="#777b78" d="M531 17l-85 29-81-51z"/><path fill="#1f2e1f" d="M503 5l-68 11-29-21z"/><path fill="#121417" d="M488 105L334 75l90-53z"/><path fill="#211b1b" d="M446 70l-162 47 125-84z"/><path fill="#2c301f" d="M282-16L106 158l220 3z"/><path fill="#f8e6bc" d="M596 291l8 204-79-79z"/><path fill="#f8e5bb" d="M651 219l-53 273-49-66z"/><path fill="#f7e2b8" d="M533 309l303 257-277-120z"/><path fill="#f7e2b8" d="M538 316l302 250-267-122z"/><path fill="#63243a" d="M471 615l21-94 98-42z"/><path fill="#713a3f" d="M461 608l80-177 47 51z"/><path fill="#c6aa7b" d="M29 844l-45-36 90-90z"/><path fill="#c3a97e" d="M7 851l-23-31 53-68z"/><path fill="#e3c99a" d="M19 867l-35-11 92-101z"/><path fill="#f5e0b6" d="M100 857L-7 867l79-71z"/><path fill="#f2dcad" d="M41 830l52-27-21-98z"/><path fill="#7a7e7c" d="M517 102l-3-78-36 73z"/><path fill="#1e221d" d="M508 92l3-58-10 27z"/><path fill="#393b39" d="M478 95l35-62-67-4z"/><path fill="#0b080d" d="M489 105l-26 110-19-160z"/><path fill="#b79977" d="M502 110l7 153-29-74z"/><path fill="#fcf0c1" d="M404 506l-26 37-4-97z"/><path fill="#7e412a" d="M348 410l20 114 8-87z"/><path fill="#f5dba5" d="M322 483l-15 127 34-71z"/><path fill="#e4c896" d="M257 461l7 137 54-50z"/><path fill="#e0c694" d="M161 525l131 154-27-113z"/><path fill="#603222" d="M412 706l-61 47 75-117z"/><path fill="#935940" d="M389 726l-70 37 112-143z"/><path fill="#cb8361" d="M304 669l17 93 162-244z"/><path fill="#c98461" d="M310 680l13 83 113-223z"/><path fill="#7b4435" d="M371 632l-52 1 84-125z"/><path fill="#a45c40" d="M472 242l50 83-18 132z"/><path fill="#7d3e33" d="M488 242l34 83-87 155z"/><path fill="#b87155" d="M352 151l99-32-66-39z"/><path fill="#95543f" d="M356 155l99-17-32-41z"/><path fill="#bf755b" d="M355 135l84-8-68-37z"/><path fill="#a65f4a" d="M401 118l34 5-35-44z"/><path fill="#c3836c" d="M380 100l22 10-5-26z"/><path fill="#7f5e5d" d="M778 86l-132 43 204-4z"/><path fill="#292c28" d="M852-16L502 90l356 18z"/><path fill="#38402e" d="M791-16L640 85l227-27z"/><path fill="#5f6662" d="M787 45l-89 22 97 2z"/><path fill="#747671" d="M789 70h-41l42-13z"/><path fill="#2a261c" d="M96 114L-10 72 3 178z"/><path fill="#302f23" d="M160 38L21 92 0 185z"/><path fill="#23251f" d="M127 19l-94 2 110 119z"/><path fill="#444733" d="M144 137L-16 24 84 158z"/><path fill="#393c26" d="M128 125L-16 21l87 109z"/><path fill="#bcaea7" d="M73 162l16 27-13-64z"/><path fill="#8a715a" d="M-16 187l81-15 2-33z"/><path fill="#9a7a60" d="M43 180l14 1-3-43z"/><path fill="#797060" d="M98 157l-28 24 97-19z"/><path fill="#6c5e4f" d="M552 774l-25-85 145-169z"/><path fill="#715543" d="M536 780l-12-79 94-125z"/><path fill="#cb8b69" d="M436 776l77-76 20-152z"/><path fill="#ac785f" d="M467 777l109-131 3-178z"/><path fill="#b9c8cc" d="M-1-16L19 6 5 25z"/><path fill="#7e8f79" d="M21-16h104L91 9z"/><path fill="#4a573b" d="M-3 28L99 9 35-11z"/><path fill="#363e2a" d="M24 24l95 9L36 0z"/><path fill="#2f3124" d="M-6 29l114 72-15-53z"/><path fill="#e19b69" d="M440 299l-73 81 16-138z"/><path fill="#dd9264" d="M416 351l-87-42 53-70z"/><path fill="#da9a6e" d="M431 333l-65 39 78-113z"/><path fill="#d314c8" d="M337 334l17 60-36-42z"/><path fill="#996e58" d="M323 326v65l-11-28z"/><path fill="#fce6b5" d="M410 708l-82 81 154 68z"/><path fill="#fae7ba" d="M398 749l-21 95 198 13z"/><path fill="#928a77" d="M673 603l-75-116 81 3z"/><path fill="#847667" d="M660 596l-78-44 88-43z"/><path fill="#958875" d="M670 567l-79-70 106 24z"/><path fill="#816559" d="M604 587l-30-121 89 124z"/><path fill="#877f6e" d="M649 529l-46-23 27 102z"/><path fill="#d6bc8a" d="M196 587l-58-7 137-128z"/><path fill="#fcedc6" d="M226 370l-99 212 190-182z"/><path fill="#f8e6bf" d="M252 221L42 546l279-173z"/><path fill="#623e2c" d="M538 348l-35-34 44 107z"/><path fill="#a76144" d="M484 304l36 20-25 70z"/><path fill="#f5e0b3" d="M587 229l-89-7 65 160z"/><path fill="#f2daa9" d="M511 154l-16 79 45 70z"/><path fill="#e5ce8b" d="M585 113l-63 69 55-31z"/><path fill="#7f645a" d="M628 127l-138 25-3-37z"/><path fill="#2e2e4d" d="M625 112l-89-24-62 32z"/><path fill="#1d211d" d="M721 90L538-11l8 114z"/><path fill="#1f241a" d="M781 55L589-16l-41 62z"/><path fill="#24291d" d="M756 1L619-12l-39 74z"/><path fill="#fbfbff" d="M780 768l-60-7 14 66z"/><path fill="#fbf7f6" d="M773 788l-50-3 4 31z"/><path fill="#e6d0a5" d="M772 506l71 255-70 74z"/><path fill="#eed8ad" d="M795 528l72 275-74 5z"/><path fill="#cd7d57" d="M455 572l51-102-15-80z"/><path fill="#965a3d" d="M468 608l58-116-27-38z"/><path fill="#623231" d="M468 608l58-114 28 37z"/><path fill="#ce8f6a" d="M476 678l27-100 63-49z"/><path fill="#cd8f6a" d="M480 697l4-90 75-49z"/><path fill="#e0d5dd" d="M641 106l21-7 14 7z"/><path fill="#3b4421" d="M642 73l98 8-60-31z"/><path fill="#455026" d="M640 73l78-10-34-12z"/><path fill="#171a16" d="M623 73l100-35-76-14z"/><path fill="#2e3135" d="M567 103l27-64 18 56z"/><path fill="#b4956a" d="M-16 446l33 9 17-31z"/><path fill="#ccb183" d="M-16 489v-36l43-29z"/><path fill="#faeac5" d="M79 626l-95-148 105-49z"/><path fill="#d8c092" d="M102 560l63-101-41 24z"/><path fill="#fceec9" d="M63 592l90-80 44 18z"/><path fill="#7d5b46" d="M538 770l-63 17 100-115z"/><path fill="#9a684d" d="M515 772l-49 14 86-122z"/><path fill="#55493f" d="M517 774l27 3 20-60z"/><path fill="#4b3d34" d="M524 771l6 5 10-28z"/><path fill="#cb8c68" d="M448 786l-24-32 67-64z"/><path fill="#c8af82" d="M138 856l56-85 17 96z"/><path fill="#d0b788" d="M165 808l90-108-53 144z"/><path fill="#f5e3b9" d="M181 735l76-44-124 148z"/><path fill="#f4e3ba" d="M203 774l40-113-89 129z"/><path fill="#feecc1" d="M297 670l-40 48 12 120z"/><path fill="#cb7b55" d="M316 604l47-121 1 116z"/><path fill="#c97c58" d="M321 618l38-159 10 107z"/><path fill="#d4875f" d="M333 593l16-133 16 98z"/><path fill="#7f817d" d="M536 21l-1 72 12-29z"/><path fill="#1f1e1f" d="M541 38l5 81 37-56z"/><path fill="#151519" d="M583 38l-38 63 27-4z"/><path fill="#6f714f" d="M543 59l6-6-2 15z"/><path fill="#151819" d="M517 87l-1-73 21 58z"/><path fill="#47251e" d="M312 264l24 17-15 83z"/><path fill="#8a5644" d="M388 469l21 67 57 13z"/><path fill="#894f44" d="M467 499l-57 30 40 34z"/><path fill="#bb6d53" d="M488 531l-55 19-18 91z"/><path fill="#d48562" d="M473 610l-30-16-12 94z"/><path fill="#945141" d="M480 658l2-55-65 120z"/><path fill="#a7a7a7" d="M472 76l5-29-10-25z"/><path fill="#1b1e17" d="M476 83l24-10-26-42z"/><path fill="#181816" d="M481 78l17-45h-26z"/><path fill="#999591" d="M436 26l74 1-21-21z"/><path fill="#85817f" d="M469 27l47 1-4-17z"/><path fill="#fff2c9" d="M527 422l12 7-6-47z"/><path fill="#6c4834" d="M565 457l-44 52-1-93z"/><path fill="#89197d" d="M550 525l41-42-39 5z"/><path fill="#6d204f" d="M558 524l-42 4 36-40z"/><path fill="#5a2034" d="M541 527l-39 22 18-45z"/><path fill="#3c2f33" d="M606 103l17 27 82-13z"/><path fill="#746365" d="M656 110l-1 16 35 9z"/><path fill="#906e62" d="M637 126l9 16 46-12z"/><path fill="#f4dba7" d="M496 157l124 75 243-109z"/><path fill="#f5dead" d="M504 169l116 63 247-76z"/><path fill="#c8b089" d="M367 206l17 17-26 7z"/><path fill="#8a5039" d="M359 234l53 24-1-47z"/><path fill="#89412f" d="M411 244l-14-62 56-5z"/><path fill="#ca8177" d="M279 166l-11-14 3-29z"/><path fill="#4e4844" d="M268 166l-14-2 4-32z"/><path fill="#271d16" d="M272 158l-17 1 13-13z"/><path fill="#181311" d="M289 160l-13-32 86-15z"/><path fill="#231a17" d="M312 162l-39-20 121-77z"/><path fill="#6e694f" d="M197 171l18-6-27-64z"/><path fill="#1e1e19" d="M271 124l-68 28-8-24z"/><path fill="#23261a" d="M264 69l3 59h-73z"/><path fill="#343529" d="M250 142l10-5-23-32z"/><path fill="#3b4b22" d="M269 124l29-7-33-52z"/></g></svg>
