<svg xmlns="http://www.w3.org/2000/svg" viewBox="0 0 99 99"><path fill="#d3e1de" d="M0 0h99v99H0z"/><path fill="#8d7b70" d="M30-2L-2 99h102z"/><path fill="#889695" d="M100 99l-38 1L98-2z"/><path fill="#556564" d="M99 17l1-17-15-2v20z"/><path fill="#a18c82" d="M-2 96L1-2l54 56z"/><path fill="#69544a" d="M22 30l3-32 15 1 9 33z"/><path fill="#675447" d="M56 75c6 6 6 17 0 23-7 6-17 6-23 0-7-6-7-17 0-23 6-6 16-6 23 0"/><path fill="#7d7977" d="M17-1L-2 0l20 23z"/><path fill="#654534" d="M17 42l19 18 5 39z"/><path fill="#b5bcb7" d="M76 63L72-2 47 30z"/><path fill="#bd9a8e" d="M34 46c-3-9-5-23-5-32s3-9 5-1c3 9 5 23 5 32s-2 10-5 1"/><path fill="#4f483d" d="M65 81l-17-1 19-16z"/><path fill="#7d8980" d="M66-2c1-4 3-4 5 0v12c-1 3-3 4-4 0-1-3-2-9-1-12"/><path fill="#c3ada7" d="M35 57l13-24-32 3z"/><path fill="#4c3b31" d="M-2 92l29 6-26 2z"/><path fill="#c6d3d3" d="M85 32L74 60l11 1z"/><path fill="#4f6c6e" d="M100 52c4 3 4 9 0 13-3 3-9 3-12 0-4-4-4-10 0-13 3-4 9-4 12 0"/><path fill="#998c87" d="M52 66c3 3 3 8 0 11s-8 3-11 0c-2-3-2-8 0-11 3-3 8-3 11 0"/><path fill="#b99e8e" d="M13 61L-1 89l31 8z"/><path fill="#a9bbb4" d="M50 0c3 2 3 5 0 7s-7 2-10 0c-2-2-2-5 0-7h10"/><path fill="#664436" d="M52 50c0 2-2 3-4 1-2-3-3-7-2-9 0-3 2-4 4-2 2 3 3 7 2 10"/><path fill="#63615c" d="M-2 78l11-1-9-17z"/><path fill="#352a22" d="M41 9l-3 21 10 2z"/><path fill="#495c5e" d="M73 65v-5l19 6z"/><path fill="#463123" d="M44 82L34 98l-4-24z"/><path fill="#2e2b27" d="M30 23v6c-2 2-4 2-6 0-2-1-2-4 0-6h6"/><path fill="#cbcac5" d="M19 30l5-8-6-10z"/><path fill="#b7aa9f" d="M1 63l9-41L-2 0z"/><path fill="#cad6d3" d="M66 10c5 5 5 12 0 17-4 5-12 5-17 0s-5-12 0-17 13-5 17 0"/><path fill="#ac7b6b" d="M38 14c3 2 3 6 0 9-2 2-7 2-9 0-3-3-3-7 0-9 2-3 7-3 9 0"/><path fill="#798f92" d="M85 23V12l15 5z"/><path fill="#a2a59f" d="M55 31l9 29 12 1z"/><path fill="#2c2f2a" d="M41 11L28 4l8-6z"/><path fill="#987668" d="M40 90c-2-3 0-4 3-2s7 6 8 10c2 3 0 4-3 2s-6-6-8-10"/><path fill="#845945" d="M20 61c2 2 2 4 0 5-1 2-3 2-4 0v-5h4"/><path fill="#6e8272" d="M51-3l1 4-14 2-1-4z"/><path fill="#99afb6" d="M95 21v18H85V21z"/><path fill="#936851" d="M14 48l17 21-11-19 2-15z"/><path fill="#34312f" d="M25 30h-2l3-26h3z"/><path fill="#7b7471" d="M5 5v5c-2 2-4 2-6 0V5c2-2 4-2 6 0"/><path fill="#956e59" d="M6 77c-1-3 0-3 2-2l6 8c1 2 0 3-2 1l-6-7"/><path fill="#c7b0a2" d="M13 64l-9 4 24 29z"/><path fill="#5e8087" d="M85 51l11-12 3 13z"/><path fill="#3b3025" d="M35 93c-2-2-1-3 1-2 3 0 6 3 8 5s1 3-2 3c-2-1-6-3-7-6"/><path fill="#2a2926" d="M25 16l6 12v2l-3 4z"/><path fill="#6c6e61" d="M52 91l18-25-11 33z"/><path fill="#584236" d="M24 95v4h-4v-4h4"/><path fill="#7c7675" d="M13 46l-5-2 5-22 5 1z"/><path fill="#b18c7c" d="M27 15l4-9 7 5z"/><path fill="#7d5745" d="M26 85l3-16 2 28z"/><path fill="#404a47" d="M97-5c3 3 3 7 0 10s-7 3-10 0-3-7 0-10 7-3 10 0"/><path fill="#c9cac4" d="M23 10l1-6c0-2 1-2 1 0v6c-1 2-2 2-2 0"/><path fill="none" stroke="#a2a39f" stroke-linecap="round" stroke-width="15" d="M1018 125c-2 139-1 251 3 334" transform="scale(.09668 .09696)"/><path fill="none" stroke="#9fa5a1" stroke-linecap="round" stroke-width="16" d="M861 1018c-45-7-39-128 17-363" transform="scale(.09668 .09696)"/><path fill="#9ca29d" d="M65 100h32L84 65z"/><path fill="#c1b2a6" d="M8 10l1 38-11-36z"/><path fill="#bda498" d="M29 94v9c-1 3-2 3-3 0v-9c1-2 2-2 3 0"/><path fill="#3a3834" d="M-1 75c-2 0-2-1 0-2h6c2 0 2 1 0 2h-6"/><path fill="#c5bbbb" d="M28 48c0 2-1 3-2 2-2-2-4-4-4-6-1-3 0-3 2-2l4 6"/><path fill="#99978c" d="M56 52l9-5-14-12z"/><path fill="#a59795" d="M47 61c2 2 2 5 0 7s-5 2-7 0-2-5 0-7 5-2 7 0"/><path fill="#483b35" d="M24 54l-4-7 1-6z"/><path fill="#c3ccc7" d="M83 0c3 2 3 6 0 9s-7 3-9 0c-3-3-3-7 0-9 2-3 6-3 9 0"/><path fill="#443b31" d="M67 70l-16 7v12z"/><path fill="#b1a79e" d="M7 60c-3 2-5 1-6-2s0-7 2-9c3-2 5-1 6 2s0 7-2 9"/><path fill="#985f4d" d="M34 16l2 12 4-6 1-2z"/><path fill="#263030" d="M27 4h4v4h-4z"/><path fill="#44342a" d="M40 6l-3 8 7 3z"/><path fill="#654439" d="M23 79h-1l1-5c0-1 0-1 0 0v5"/><path fill="#b99282" d="M48 33v5h-5v-5h5"/><path fill="none" stroke="#ba9281" stroke-linecap="round" stroke-width="16" d="M302 169c-11 51 29 109 120 173" transform="scale(.09668 .09696)"/><path fill="#897b77" d="M44 81l-6-11 12 11z"/><path fill="#68473c" d="M25 80l1-7c0-2 0-2 0 0v7c-1 2-1 2-1 0"/><path fill="#647070" d="M6 61L2 73l-4-12z"/><path fill="#bd9688" d="M51 53c1-2 2-2 3 0s0 5-1 7-2 2-3 0l1-7"/><path fill="#a47861" d="M16 58v5h-5c-2-1-2-4 0-5h5"/><path fill="#bccdcb" d="M44 5c3-3 9-6 14-7 4-2 5 0 2 3-4 3-10 7-14 8-5 1-6 0-2-4"/><path fill="#d4c5c2" d="M39 49l-10-1 4-12z"/><path fill="#bfcec9" d="M49 30L42 9l11-3z"/><path fill="#7e5f56" d="M28 46l3 10-3-5z"/><path fill="#b8bab2" d="M76 9l-9 5 2 31z"/><path fill="#bf9c8e" d="M25 64v7c-1 2-3 2-4 0v-7c1-2 3-2 4 0"/><path fill="#c29e88" d="M10 51l15 8-5 2z"/><path fill="#86706a" d="M33 59l2-4 4 12z"/><path fill="#85746e" d="M49 66l1-14-7-3z"/><path fill="#1d1d1b" d="M42 33l-4-8 5-4z"/><path fill="#2b231b" d="M31 86l15-3-16-2z"/><path fill="#a1a8a0" d="M74 2l-3 12c-1 3-1 3-1 0l2-13c1-3 2-3 2 1"/><path fill="#47382f" d="M14 96h8c2 0 2 0 0 1h-8c-3 0-3-1 0-1"/><path fill="#835745" d="M55 51v-1l-5-18v20z"/><path fill="#b18871" d="M17 31l9-1-16 25z"/><path fill="#bfc4bf" d="M90 29l-3-2 1-11z"/><path fill="#9d705b" d="M29 72l-3-7c0-2 0-2 2-1l2 8c1 2 0 2-1 0"/><path fill="#929187" d="M55 68c1-3 4-7 7-8 3-2 4-1 3 2-1 4-4 7-7 9s-4 0-3-3"/><path fill="#3c2b24" d="M48 50l-3-7 3-1 3 7z"/><path fill="#c5b3a7" d="M0 81l5 7-7 1z"/><path fill="#6c4f45" d="M55 64l-4 3 1-5z"/><path fill="#d1dfdc" d="M51 12l15 17V-2z"/><path fill="#405a5f" d="M73 61h11l-1 5z"/><path fill="#80766a" d="M98 53l2 10-3 6z"/><path fill="#7f7774" d="M11 46v11c0 3-1 3-1 0V46c0-4 1-4 1 0"/><path fill="#7c523c" d="M41 75c2 4 1 4-1 1-3-2-5-7-7-10-1-3 0-4 2-1 3 2 5 7 6 10"/><path fill="#bc9b90" d="M26 81l2-3-1-7z"/><path fill="#655048" d="M20 30l4-6-2 7z"/><path fill="#4f615e" d="M94 20v1h-3v-1h3"/><path fill="#aa9797" d="M36 53h7c2 1 2 3 0 5h-6c-2-1-2-3-1-5"/><path fill="#c4c9ce" d="M49 53v1h-1v-1z"/><path fill="#a98d7a" d="M21 88v6h-7v-6h7"/><path fill="#5c7f88" d="M88 45v9c-1 2-2 2-2 0v-9c0-2 1-2 2 0"/><path fill="#86776c" d="M48 70l4 5-4 6z"/><path fill="#81604a" d="M22 61v2h-1v-2h1"/><path fill="#888485" d="M17 17L9 37V5z"/><path fill="#7c6c6a" d="M22 46l2 4 6 3z"/><path fill="#c9c5be" d="M23 10v9c0 2-1 2-2 0v-9c1-2 2-2 2 0"/><path fill="#334042" d="M77 61v3h-3v-3h3"/><path fill="#466669" d="M98 66l-1-18-12 13v5z"/><path fill="#8e8b81" d="M59 69l5-19-10-7z"/><path fill="#766e6b" d="M18 24v7l-6 8z"/><path fill="#67503b" d="M25 0h6v3h-6z"/><path fill="#6b534b" d="M32 14v1h-3v-1z"/><path fill="#ad9f99" d="M19 50v1l1-4 1 5z"/><path fill="#cad3d2" d="M85 46L74 57 73 6z"/><path fill="#9b6752" d="M36 25c2 1 2 1 0 1h-5v-1h5"/><path fill="#c7a393" d="M26 34l3 13 7-19z"/><path fill="#6d4b39" d="M36 88l8-3-5 4 2 5z"/><path fill="#867d72" d="M47 25l-4-5 5 8-5-16z"/><path fill="#816b59" d="M99-5v16c0 4-1 4-1 0V-5c0-4 1-4 1 0"/><path fill="#a37c6c" d="M27 10h2v6h-2z"/><path fill="#8c6961" d="M29 48h-1l-1-3h1z"/><path fill="#bb9b88" d="M6 61l8 3-9 6z"/><path fill="#9a7662" d="M1 80c-2-1-2-2 0-3l6-1c2 0 2 1 0 2l-6 2"/><path fill="#cbc0bf" d="M26 37v7h-4v-7c1-2 3-2 4 0"/><path fill="#b1a49b" d="M9 53H4V34h5z"/><path fill="#a97e67" d="M13 64c-1-2 0-3 2-1l5 5c1 2 1 3-1 1l-6-5"/><path fill="#89604f" d="M35 14l4-1-5-7 3 10z"/><path fill="#b7cacb" d="M84 55h1v10h-1z"/><path fill="#726e6a" d="M-3 4l2-6 7 2-1 6z"/><path fill="none" stroke="#777a6f" stroke-linecap="round" stroke-width="16" d="M573 1013c34 12 90-112 169-370" transform="scale(.09668 .09696)"/><path fill="#a8836f" d="M20 90L9 83h6z"/><path fill="#c09486" d="M36 24v1h-4v-1h4"/><path fill="#62412f" d="M33 90l-5-11-2 3z"/><path fill="#c1d2cd" d="M53 28L39 3l8-1z"/><path fill="#936451" d="M44 38l1 5 2-5z"/><path fill="#c29685" d="M33 19l-3 2c-2-1-3-2-2-3 0-2 1-3 2-2 2 0 3 1 3 3"/><path fill="#be988e" d="M23 82l1-13v14l-6-6z"/><path fill="#707d73" d="M70 2l-1 8-3 1V-2z"/><path fill="#9d8a80" d="M23 22v-6l1 7-1 1z"/><path fill="#617a7e" d="M96 13c2 1 1 3-1 3-3 1-6 0-9-1-2-2-1-3 1-4l9 2"/><path fill="#6b4735" d="M14 82l-3 2v-4z"/><path fill="#b09e9c" d="M45 43c0 1-1 4-3 5-1 1-2 1-2-1s1-4 3-5c1-2 2-1 2 1"/><path fill="#9aa4a2" d="M88 17l3 3-6 1z"/><path fill="#8d5e4b" d="M51 38v3h-3v-3h3"/><path fill="#d1b7b2" d="M35 21v1h-2v-1h2"/><path fill="#a28574" d="M24 95l-2-4H-2l12 4z"/><path fill="none" stroke="#88a3ad" stroke-linecap="round" stroke-width="16" d="M980 224c38 128 10 189-86 182" transform="scale(.09668 .09696)"/><path fill="#704936" d="M20 64l1 5-5-6h1z"/><path fill="#8d8377" d="M100 48v10c-1 2-1 2-2 0V48c1-3 1-3 2 0"/><path fill="none" stroke="#5f4134" stroke-linecap="round" stroke-width="14" d="M501 538c23-37 28-60 16-67" transform="scale(.09668 .09696)"/><path fill="#a8aeaa" d="M55 33l7 1 5 14z"/><path fill="#896657" d="M43 89l1-5 6 12z"/><path fill="#978382" d="M33 51l-2 4 5 3z"/><path fill="#ac9a93" d="M43 89l-2 4v-1l2-4v1"/><path fill="#b8a5a1" d="M42 32h-5l7 7z"/><path fill="#c8d2cd" d="M85-1L73 9l1 22z"/><path fill="#946d62" d="M29 80v1l2-1-1-8z"/><path fill="#9c6d59" d="M38 32l2-2-5-5z"/><path fill="#b58b71" d="M13 48l-3 3 15 9z"/><path fill="#70929c" d="M98 36l-13 7 6 4z"/><path fill="#938f86" d="M47 28l1-1 1 4h-1l-1-3"/><path fill="#69473e" d="M52 63l-1 1-2-6z"/><path fill="#878075" d="M45 16l-3-7 2 4 1 2z"/><path fill="#7b8078" d="M82 67H70c-3 0-3-1 0-1l12-1c3 1 3 1 0 2"/><path fill="#8fa49f" d="M50 1h-1l6-2c2 0 2 0 1 1l-6 1"/><path fill="#bd9a8b" d="M33 13l-4-2c-1-1-1-2 1-2l4 2c1 1 1 2-1 2"/><path fill="#c0afa9" d="M24 34l2-2 1 2-2 2z"/><path fill="#d0d3cd" d="M25 9l-8-1 8-10z"/><path fill="#a2a39d" d="M51 35l2 8 10-3z"/><path fill="#d2c9c7" d="M42 63l1 1h-1v-1"/><path fill="#847870" d="M51 89h-1l-1-3h1l1 3"/><path fill="#9d8f86" d="M45 84l4 1 1 1-1-1z"/><path fill="#35544d" d="M38 0l5-1v1l-5 1z"/><path fill="#7a5347" d="M23 71v3l-1 2 1-6z"/><path fill="#526865" d="M91 21h-3 3"/><path fill="#84766f" d="M43 51c-2 0-2 0-1-1l5-2v2l-4 1"/><path fill="#93644e" d="M12 56l6 4-2 3z"/><path fill="#aea49a" d="M0 38h4v23H0z"/><path fill="#d1d3cd" d="M23 15h-5V0h5z"/><path fill="#4d3426" d="M25 98v2h-1v-2h1"/><path fill="#a88574" d="M23 83c-2-5-2-5 1-1a244 244 0 0 1 8 19l-9-18"/><path fill="#e6dac6" d="M23 60h-1v-1h1v1"/><path fill="#7e8077" d="M67 61h6v17h-6z"/><path fill="#4b372b" d="M31 58l-7-5 4 8z"/><path fill="#9f725e" d="M27 30l-5 3-3-2z"/><path fill="#413a32" d="M44 16l-2-5-1-4-4-4z"/><path fill="#bc8c77" d="M39 16l-3-1 3 6z"/><path fill="#26221e" d="M41 30l3-2c1 0 2 1 1 2l-3 2c-1 0-2-1-1-2"/><path fill="#aa7c67" d="M34 7l2 3v3l-5-6z"/><path fill="#2c3833" d="M31 1l7 3-1-6-4 2z"/><path fill="#be967d" d="M19 34v4c0 2-2 2-3 0v-4h3"/><path fill="#8e7b75" d="M37 67l-1-5c0-2 1-2 2 0l1 5c0 1-1 2-2 0"/><path fill="#81553e" d="M19 50l-3-1 2-2c1-1 2 0 2 1l-1 2"/></svg>
