<svg xmlns="http://www.w3.org/2000/svg" width="99" height="99" version="1"><path fill="#689ab2" d="M0 0h99v99H0z"/><path fill="#bcd8f3" d="M99-2L-2 3l102 43z"/><path fill="#726858" d="M55 38c6 17 6 44 0 62-5 17-15 17-21 0-6-18-6-45 0-62 6-18 16-18 21 0"/><path fill="#2e3937" d="M39 27l-41-1 3 14 71-2z"/><path fill="#c8b89a" d="M94 74a22 22 0 1 1-30 31 22 22 0 0 1 30-31"/><path fill="#b3a58d" d="M30 68a26 26 0 1 1-37 36 26 26 0 0 1 37-36"/><path fill="#b8d3f1" d="M-3 15C-7 7-4 0 5-1s20 5 25 13c5 7 1 14-8 15S2 22-3 15"/><path fill="#778e90" d="M29 39l4 53 16-52z"/><path fill="#453024" d="M60 91l-33-4 17-14z"/><path fill="#8cadb9" d="M100 34l1 19-65-11z"/><path fill="#e2cdab" d="M91 101L55 79l5-12z"/><path fill="#555a57" d="M70 39l-10-6 27 4z"/><path fill="#8e9e9d" d="M57 69l41-22 3 33z"/><path fill="#3d2722" d="M56 48a7 7 0 1 1-9 10 7 7 0 0 1 9-10"/><path fill="#bb9255" d="M52 91a10 10 0 1 1-14 15 10 10 0 0 1 14-15"/><path fill="#c7dcf6" d="M44 26L14 8l18-27L61 0z"/><path fill="#c78d5d" d="M46 77l21 14-15-24z"/><path fill="#7d8076" d="M13 40H-4c-5-1-5-2 0-3l17 1c5 1 5 2 0 2"/><path fill="#cdbea5" d="M39 76l1-11L0 80z"/><path fill="#5d3c28" d="M48 73c-2 4-5 4-7 0-1-3-2-9 0-13 2-3 5-3 7 0 2 4 2 10 0 13"/><path fill="#707778" d="M18 80c4-1 11 1 15 3s4 4-1 4c-4 1-11-1-15-3s-4-4 1-4"/><path fill="#78847f" d="M50 35l14-6 4 4z"/><path fill="#462619" d="M54 57c0-3 2-3 3 0l1 12c-1 3-2 3-3 0-2-3-2-9-1-12"/><path fill="#475544" d="M45 26c3 2 3 3-1 3l-13-2c-3-1-3-3 1-3l13 2"/><path fill="#d6c6b1" d="M13 80c-6 1-16-1-22-4s-6-6 1-7c6-1 16 1 22 4s5 6-1 7"/><path fill="#6e3d23" d="M54 80l2-7-4 7z"/><path fill="#eaf0fe" d="M99 7l2-9-36 3z"/><path fill="#a0c8ec" d="M-2 19h47l-28 9z"/><path fill="#cca474" d="M62 81l-3 20-5-2z"/><path fill="#5f6a5b" d="M54 29c2 1 2 4 0 5-1 2-3 2-5 0v-5c2-2 4-2 5 0"/><path fill="#95c5f0" d="M25 7L5 2C0-1 0-3 6-2c6 0 15 2 20 5 6 2 5 4-1 4"/><path fill="#c8ddf0" d="M44 22l22 7-9 1z"/><path fill="#e6d4b7" d="M63 92l6-10 30 16z"/><path fill="#a0d0f5" d="M55 17l1-13 44 3-1 14z"/><path fill="#75756a" d="M-2 84l18-1-15-3z"/><path fill="#678f9f" d="M59 39l-61 1 19 25z"/><path fill="#7f9498" d="M59 68l-2-22 37 25z"/><path fill="#96c4ee" d="M6 18a4 4 0 1 1-6 6 4 4 0 0 1 6-6"/><path fill="#4a584d" d="M16 27L3 25h7z"/><path fill="#c8af8b" d="M-2 96l39 5 1-13z"/><path fill="#dfecfa" d="M73 27c7-1 18-1 24 1 7 2 7 5 0 7-7 1-17 1-24-1-6-2-6-5 0-7"/><path fill="#839188" d="M36 59a6 6 0 1 1-8 8 6 6 0 0 1 8-8"/><path fill="#e0e6f8" d="M27 6L7 18l50-2z"/><path fill="#e4d1ac" d="M81 86l12-2-1 13z"/><path fill="#2c373e" d="M77 38l-1-2 5-1v2z"/><path fill="#915538" d="M59 86a2 2 0 1 1-2 2 2 2 0 0 1 2-2"/><path fill="#655d4c" d="M41 73l-8 16-2-9z"/><path fill="#b09463" d="M53 66c1 1 0 2-1 0l-2-5c0-1 0-2 1 0l2 5"/><path fill="#b3aa8e" d="M78 85L68 72l32 6z"/><path fill="#1b2729" d="M41 27l8 12-51-4z"/><path fill="#9ebac3" d="M76 49v-9l29 1v9z"/><path fill="#f2dab1" d="M55 78h4l14 8-15-13z"/><path fill="#5f6d6a" d="M33 26l-9 1-8 1 3-2z"/><path fill="#789ba9" d="M81 36v5l17-5z"/><path fill="#201d22" d="M56 46l-6-1-3 2-1 7z"/><path fill="#95aaac" d="M101 52l-42 4 42 12z"/><path fill="#e0e8fc" d="M36 5l9-7 26 4z"/><path fill="#3b241a" d="M40 71l18 20-21-4z"/><path fill="#638086" d="M46 50v6c-1 2-1 2-2 0v-6h2"/><path fill="#dac7a9" d="M19 72c2 1 2 2 0 3h-5c-2-1-2-2-1-3h6"/><path fill="#839390" d="M-2 56l31 4-1 6-31-3z"/><path fill="#56615a" d="M62 36l6-5-5-1z"/><path fill="#c8b49e" d="M43 71h1v2h-1z"/><path fill="#d2be9a" d="M0 37h3v2H0z"/><path fill="#683420" d="M49 55c0-2 1-3 3-3 2-1 3 1 3 2-1 2-2 3-4 3-1 1-3-1-2-2"/><path fill="#949e9b" d="M56 35l1 1 3-5-7-3z"/><path fill="#a9cff3" d="M29 3l27 8-1 3-27-8z"/><path fill="#725035" d="M41 61l9 2-2-5z"/><path fill="#e5d7be" d="M95 101l5-12-5 3z"/><path fill="#6f8c97" d="M39 60L-1 46l-1 11z"/><path fill="#99c5ee" d="M5 10a5 5 0 1 1-7 7 5 5 0 0 1 7-7"/><path fill="#152126" d="M35 36L3 28l-5 9z"/><path fill="#c9dbf4" d="M17 27l4-3-2-1H9z"/><path fill="#b58a4d" d="M37 88l1 9 24-3-15-5z"/><path fill="#687d80" d="M73 63c3 1 2 2-1 2l-11-1c-3-2-3-3 0-3l12 2"/><path fill="#ebac6d" d="M52 73a3 3 0 1 1-3 4 3 3 0 0 1 3-4"/><path fill="#67695f" d="M21 31v10z"/><path fill="#8d999f" d="M69 29h-2v-1l2-1z"/><path fill="#ddcdb6" d="M29 74c4 1 4 3 0 4H15c-4-1-4-3 0-4h14"/><path fill="#cfd7de" d="M103 35c3 1 3 1 0 1l-11-1c-3 0-3-1 0-1l11 1"/><path fill="#985d3c" d="M59 70l-5-2 1 8z"/><path fill="#979f92" d="M39 69h-5l8-12z"/><path fill="#c1a985" d="M20 70c3 0 7 1 10 3 2 1 2 2-1 2l-10-3c-2-1-2-2 1-2"/><path fill="#d8e7f8" d="M57 31l1-1 16-4H54z"/><path fill="#443d30" d="M36 89l3-10-7 4 3 5z"/><path fill="#c8b99b" d="M78 78l-9 4-4-5 2-3z"/><path fill="#aad3f6" d="M51 26l-21-8 48 2z"/><path fill="#747a77" d="M19 81c2 1 2 2 0 3H8c-3-1-3-2 0-3h11"/><path fill="#e9d7bf" d="M62 89l-3 2 9 3z"/><path fill="#cbdcf5" d="M12 15l11-7-25-9z"/><path fill="#b19d7e" d="M76 87h6v1h-6z"/><path fill="#f2e4ce" d="M77 89v5h-3v-5c1-2 3-2 3 0"/><path fill="#d5a46c" d="M58 78l6 9-3-8z"/><path fill="#c8c7bf" d="M71 35h5-5z"/><path fill="#4e5553" d="M16 37c2 1 2 1 0 2h-5c-2-1-2-1 0-2h5"/><path fill="#e1d2bd" d="M40 72l-8 1v-2l8-1z"/><path fill="#e6dcc9" d="M59 75l4-5 7 5z"/><path fill="#463019" d="M43 67l2-4 6 3-5 5z"/><path fill="#b0a98f" d="M60 70v2h-2v-2h2"/><path fill="#467480" d="M91 36l-1 1-1-1 2-1z"/><path fill="#48574c" d="M16 27l-7-3-9 2z"/><path fill="#8c826f" d="M39 77l-3-2-7 7 9-3z"/><path fill="#b49d77" d="M93 88l8-2-8-2z"/><path fill="#c4ae90" d="M13 86A8 8 0 1 1 1 98a8 8 0 0 1 12-12"/><path fill="#5a695d" d="M30 24l8-1-13 5z"/><path fill="#8f8d73" d="M101 76c4 1 4 1 0 1H87c-4 0-4 0 0-1h14"/><path fill="#c6d6eb" d="M20 26h7v-3h-7z"/><path fill="#b8a78e" d="M13 72a2 2 0 1 1-2 3 2 2 0 0 1 2-3"/><path fill="#3b3c39" d="M74 36c3 1 3 1 0 2h-8c-2-1-2-1 0-2h8"/><path fill="#523020" d="M45 69v1l-2 5 5 4z"/><path fill="#61321f" d="M54 63l-6-7c-1-2 0-2 2-1l5 7c1 2 0 3-1 1"/><path fill="#cda57a" d="M68 92l-4-8-5 3z"/><path fill="#ce8f59" d="M55 72h-5c-2 0-2-2-1-2l5-1c2 1 2 2 1 3"/><path fill="#a58d6a" d="M34 88l3 1-5 1-14-5z"/><path fill="#d5b683" d="M65 94c2 1 2 3 0 4-2 2-4 2-6 0-2-1-2-3 0-4 2-2 4-2 6 0"/><path fill="#cdd57b" d="M50 64v1l-1-1v-1z"/><path fill="#485443" d="M39 27l7-2 6 8 6 4z"/><path fill="#c0ad91" d="M84 92l4 3-6-2z"/><path fill="#d7e3ec" d="M70 32a1 1 0 1 1-2 2 1 1 0 0 1 2-2"/><path fill="#b1a38f" d="M95 98l-8-2-1 5z"/><path fill="#eae89e" d="M52 65a1 1 0 1 1-1 1 1 1 0 0 1 1-1"/><path fill="#321f15" d="M58 92l-23-8 5-5z"/><path fill="#899197" d="M22 83l9-2-11-1-5-2z"/><path fill="#ab9476" d="M85 99l-6-3h-2l3-1z"/><path fill="#a1a9a8" d="M61 35l1-4-4 1 1-3z"/><path fill="#718081" d="M27 27l-9-1 5 2 2-3z"/><path fill="#759fb1" d="M46 43c2-2 5-3 8-2 2 0 3 1 1 3l-9 2c-2-1-2-2 0-3"/><path fill="#87adbb" d="M59 51l30-13H67z"/><path fill="#ae9c7c" d="M84 76l7 7H76l7 3z"/><path fill="#ecb071" d="M51 72l1-3h1v4c-1 1-1 0-2-1"/><path fill="#d1be9e" d="M-3 71c-2 1-3 1-1-1l9-5c2-1 3 0 1 2l-9 4"/><path fill="#7a8b8f" d="M95 70l-21-8-1 10z"/><path fill="#aad5f7" d="M98 24l-41-2 44-11z"/><path fill="#a6845a" d="M55 94l3-2 7 1z"/><path fill="#819ea6" d="M75 52l-16 4 31 1z"/><path fill="#d1bf95" d="M100 81h-5c-1-1-1-2 1-3l5 1c1 1 1 2-1 2"/><path fill="#739094" d="M7 56l38-6 2 6-7 4z"/><path fill="#c0aa86" d="M23 67c5 1 5 3 0 3H6c-5 0-5-2 0-3h17"/><path fill="#6c766d" d="M50 36l6-7-7 6h-2z"/><path fill="#6693a7" d="M46 40l-22 2 21 9 3-4z"/><path fill="#2f3b31" d="M29 31l15-2-1-2-8-1z"/><path fill="#cfe7fd" d="M101 31l-28-5 28-2z"/><path fill="#cca162" d="M58 94c4-1 4-1 1 1l-12 6c-3 1-4 0-1-2l12-5"/><path fill="#a48d78" d="M44 70l-2 5 2-1v-6z"/><path fill="#8bc2ee" d="M26 22c-2-1-2-3 0-4l8 1c2 1 2 3 0 4s-6 0-8-1"/><path fill="#a18d72" d="M68 94c-2-1-2-1 0 0l5 1c2 0 2 1 0 0l-5-1"/><path fill="#d2d861" d="M50 67h1v1h-1z"/><path fill="#c2b39d" d="M71 91h2v3h-2z"/><path fill="#bd7d4d" d="M61 85v-6l-5 2z"/><path fill="#ddc7a0" d="M91 97l4-5 1-4-6 2z"/><path fill="#cdb790" d="M3 38l-1 1h5z"/><path fill="#97aaaa" d="M75 60c2 1 2 1 0 2h-7c-3-1-3-1 0-2h7"/><path fill="#a6b6b5" d="M98 56l1 7-16-1z"/><path fill="#82a6b5" d="M58 49l-4-6c0-2 1-3 3-1l4 6c0 2-1 3-3 1"/><path fill="#69746f" d="M59 35h-1l-1-1 2-1v2"/><path fill="#5a4e2e" d="M50 64h1v-1h-1z"/><path fill="#416067" d="M16 39h33v1H16z"/><path fill="#aea59a" d="M20 77a1 1 0 1 1-2 2 1 1 0 0 1 2-2"/><path fill="#b59c7b" d="M23 86c3 0 3 1 0 2H12c-2-1-2-2 0-2h11"/><path fill="#57433c" d="M51 45l4 4 3 2-4-6z"/><path fill="#f7e7cf" d="M70 86v3h-3v-3h3"/><path fill="#93cbf5" d="M59 6l13 8 21-7z"/><path fill="#93b5c1" d="M82 40l-8 11-7-10z"/><path fill="#5a2613" d="M56 68v4z"/><path fill="#a28c6d" d="M4 70l6-2v2z"/><path fill="#5a6b76" d="M19 25l1 1v1l-1-1v-1"/><path fill="#89aab3" d="M84 48c5 0 5 1 0 1H66c-5 0-5-1 0-1h18"/><path fill="#4e4f4a" d="M59 36l8-3-1 3z"/><path fill="#1a181d" d="M55 47l-1 4-8 1 2-6z"/><path fill="#45371c" d="M53 68l-2 1-2-2 1 2z"/><path fill="#e3d9ce" d="M0 76h7v-2H0z"/><path fill="#8c6040" d="M45 60h3v3l-3-1v-2"/><path fill="#c3c7c0" d="M40 62v1l-2-2h1z"/><path fill="#a78e6e" d="M6 71h1v2H6z"/><path fill="#89c0ee" d="M18 20c3 0 3 1 0 1H8c-3 0-3-1 0-1h10"/><path fill="#d8d4c4" d="M21 33v2c0 1 0 1 0 0v-2c0-1 0-1 0 0"/><path fill="#ecdac0" d="M76 83v2h-3v-2h3"/><path fill="#869794" d="M84 65h10l-4-2-11-1z"/><path fill="#cfb891" d="M86 88l4 4-7-4 2-1z"/><path fill="#495d69" d="M83 38h-7 7z"/><path fill="#4e8498" d="M38 40c4 0 4 1 0 1H24c-4 0-4-1 0-1h14"/><path fill="#a1a69b" d="M101 75l-14-5-5 7z"/><path fill="#608895" d="M33 53c-3-1-3-3 0-4h11c3 1 3 3 0 4H33"/><path fill="#dcb587" d="M52 62v1h-1v-1h1"/><path fill="#efb582" d="M62 88l-3-4v-1l3 3z"/><path fill="#9ca5ae" d="M92 34l-1 1 1 1z"/><path fill="#c0784d" d="M60 89l-3-4c0-2 0-2 1-1l3 4c1 2 0 2-1 1"/><path fill="#a8caee" d="M7 24H6l2-3 1 1-2 2"/><path fill="#608fa5" d="M-1 40l41 1-42 12z"/><path fill="#c7a46d" d="M37 89a2 2 0 1 1-3 4 2 2 0 0 1 3-4"/><path fill="#221413" d="M57 50l-5 9 5-3-4-7z"/><path fill="#4e2c1c" d="M56 85v3h-3v-3h3"/><path fill="#48565e" d="M77 35h4-4z"/></svg>
